<?xml version="1.0"?>
<svg xmlns="http://www.w3.org/2000/svg" xmlns:xlink="http://www.w3.org/1999/xlink" xmlns:svgjs="http://svgjs.com/svgjs" version="1.1" width="512" height="512" x="0" y="0" viewBox="0 0 92.426 92.426" style="enable-background:new 0 0 512 512" xml:space="preserve" class=""><circle r="46.213" cx="46.213" cy="46.213" fill="#ffffff" shape="circle" transform="matrix(0.71,0,0,0.71,13.401770362854009,13.401770362854009)"/><g transform="matrix(0.7,0,0,0.7,13.863900339603425,13.863749992847445)">
<g xmlns="http://www.w3.org/2000/svg">
	<g>
		<path d="M92.105,41.552c-1.717-14.83-8.895-26.295-21.373-34.417c-5.799-3.775-12.229-5.916-19.09-6.765    c-1.24-0.154-2.49-0.248-3.734-0.37c-1.13,0-2.259,0-3.389,0c-0.989,0.106-1.979,0.204-2.968,0.319    C26.294,2.104,14.649,9.594,6.572,22.609c-3.451,5.562-5.4,11.685-6.202,18.174c-0.153,1.241-0.248,2.49-0.37,3.735    c0,1.129,0,2.259,0,3.388c0.106,0.99,0.204,1.979,0.32,2.968c1.781,15.225,9.246,26.858,22.227,34.937    c5.581,3.473,11.725,5.435,18.238,6.243c1.24,0.153,2.489,0.249,3.733,0.371c1.13,0,2.259,0,3.388,0    c0.99-0.106,1.978-0.226,2.967-0.317c19.417-1.819,36.031-16.394,40.258-35.41c0.574-2.588,0.764-5.26,1.134-7.893    c0.042-0.301,0.106-0.599,0.161-0.898c0-1.129,0-2.258,0-3.388C92.318,43.53,92.22,42.542,92.105,41.552z M46.161,83.686    C25.437,83.67,8.72,66.864,8.74,46.065C8.761,25.482,25.579,8.735,46.224,8.739c20.734,0.004,37.475,16.798,37.461,37.582    C83.672,66.946,66.843,83.703,46.161,83.686z" fill="#000000" data-original="#000000" style="" class=""/>
		<path d="M46.734,29.335c0,2.984,0,5.871,0,8.836h5.37l15.092,26.351l9.979-0.004c-0.141-0.287-20.179-35.188-20.179-35.188    S47.041,29.32,46.734,29.335z" fill="#000000" data-original="#000000" style="" class=""/>
		<path d="M31.069,29.335c0,2.984,0,5.871,0,8.836h5.371l15.091,26.351l9.979-0.004c-0.141-0.287-20.179-35.188-20.179-35.188    S31.378,29.32,31.069,29.335z" fill="#000000" data-original="#000000" style="" class=""/>
		<path d="M15.268,29.335c0,2.984,0,5.871,0,8.836h5.371L35.73,64.522l9.979-0.004C45.568,64.231,25.53,29.331,25.53,29.331    S15.576,29.32,15.268,29.335z" fill="#000000" data-original="#000000" style="" class=""/>
		<path d="M20.47,46.237c-2.937-0.002-5.206,2.272-5.202,5.215c0.004,2.918,2.308,5.209,5.23,5.201    c2.852-0.008,5.184-2.342,5.189-5.192C25.692,48.548,23.385,46.239,20.47,46.237z" fill="#000000" data-original="#000000" style="" class=""/>
	</g>
</g>
<g xmlns="http://www.w3.org/2000/svg">
</g>
<g xmlns="http://www.w3.org/2000/svg">
</g>
<g xmlns="http://www.w3.org/2000/svg">
</g>
<g xmlns="http://www.w3.org/2000/svg">
</g>
<g xmlns="http://www.w3.org/2000/svg">
</g>
<g xmlns="http://www.w3.org/2000/svg">
</g>
<g xmlns="http://www.w3.org/2000/svg">
</g>
<g xmlns="http://www.w3.org/2000/svg">
</g>
<g xmlns="http://www.w3.org/2000/svg">
</g>
<g xmlns="http://www.w3.org/2000/svg">
</g>
<g xmlns="http://www.w3.org/2000/svg">
</g>
<g xmlns="http://www.w3.org/2000/svg">
</g>
<g xmlns="http://www.w3.org/2000/svg">
</g>
<g xmlns="http://www.w3.org/2000/svg">
</g>
<g xmlns="http://www.w3.org/2000/svg">
</g>
</g></svg>
